<?xml version="1.0" encoding="UTF-8" standalone="no"?>
<!-- Created with Inkscape (http://www.inkscape.org/) -->

<svg
   xmlns:dc="http://purl.org/dc/elements/1.1/"
   xmlns:cc="http://creativecommons.org/ns#"
   xmlns:rdf="http://www.w3.org/1999/02/22-rdf-syntax-ns#"
   xmlns:svg="http://www.w3.org/2000/svg"
   xmlns="http://www.w3.org/2000/svg"
   xmlns:sodipodi="http://sodipodi.sourceforge.net/DTD/sodipodi-0.dtd"
   xmlns:inkscape="http://www.inkscape.org/namespaces/inkscape"
   width="256"
   height="256"
   id="svg2"
   version="1.1"
   inkscape:version="0.48.2 r9819"
   sodipodi:docname="Barnacle.svg">
  <defs
     id="defs4" />
  <sodipodi:namedview
     id="base"
     pagecolor="#ffffff"
     bordercolor="#666666"
     borderopacity="1.0"
     inkscape:pageopacity="0.0"
     inkscape:pageshadow="2"
     inkscape:zoom="2"
     inkscape:cx="49.602285"
     inkscape:cy="103.77255"
     inkscape:document-units="px"
     inkscape:current-layer="svg2"
     showgrid="false"
     showguides="true"
     inkscape:guide-bbox="true"
     inkscape:window-width="1440"
     inkscape:window-height="852"
     inkscape:window-x="0"
     inkscape:window-y="0"
     inkscape:window-maximized="1"
     inkscape:snap-global="false">
    <sodipodi:guide
       orientation="1,0"
       position="127.85714,127.85714"
       id="guide2985" />
    <sodipodi:guide
       orientation="0,1"
       position="127.85714,127.85714"
       id="guide2987" />
  </sodipodi:namedview>
  <metadata
     id="metadata7">
    <rdf:RDF>
      <cc:Work
         rdf:about="">
        <dc:format>image/svg+xml</dc:format>
        <dc:type
           rdf:resource="http://purl.org/dc/dcmitype/StillImage" />
        <dc:title />
      </cc:Work>
    </rdf:RDF>
  </metadata>
  <g
     id="root"
     inkscape:label="#g3782"
     transform="matrix(1.2652261,0,0,1.2652261,-32.659983,19.534583)">
    <path
       sodipodi:nodetypes="cccccccccccccccccc"
       inkscape:connector-curvature="0"
       id="path3780"
       d="m 188.82667,72.79608 19.87178,-11.798472 4.93056,-11.042626 -22.3917,7.253385 -24.679,4.466219 -20.99346,-3.940136 -14.27082,-17.171013 -18.1661,14.369862 -12.14141,4.223276 -28.060415,0.783013 -32.734043,-5.786401 7.507984,9.8046 28.652337,10.212423 15.864337,25.41102 36.47424,10.40929 33.50857,-9.75562 13.21389,-18.69134 z"
       style="fill:#1a1a1a;stroke:none" />
    <path
       sodipodi:type="arc"
       style="fill:#00ff00;fill-opacity:1;fill-rule:evenodd;stroke:none"
       id="origin_base"
       sodipodi:cx="-100"
       sodipodi:cy="177.5"
       sodipodi:rx="6.5"
       sodipodi:ry="6.5"
       d="m -93.5,177.5 c 0,3.58985 -2.910149,6.5 -6.5,6.5 -3.58985,0 -6.5,-2.91015 -6.5,-6.5 0,-3.58985 2.91015,-6.5 6.5,-6.5 3.589851,0 6.5,2.91015 6.5,6.5 z"
       transform="translate(227.5,-85)"
       inkscape:label="#path3799" />
  </g>
  <g
     id="bulb"
     inkscape:label="#g3913"
     transform="translate(0,48)">
    <g
       inkscape:label="#g3906"
       id="onion">
      <path
         style="fill:#1a1a1a;stroke:none"
         d="M 112,70.5 48,78 20,96 l -8,29 10,32 12.5,20 26,19 32.5,16.5 11.5,16 44.5,-1 10,-15 33,-23.5 38,-41.5 5.5,-42.5 -15.5,-23.5 -84,-6 z"
         id="path3820"
         inkscape:connector-curvature="0"
         sodipodi:nodetypes="ccccccccccccccccc" />
      <path
         style="fill:#333333;stroke:none"
         d="m 68.5,72 -17,18 -13.5,28 -0.5,23.5 17,31 28.5,23 19.5,14 6.5,10 -8.5,-17 -39.5,-37 -14,-27 12,-33.5 31,-23.5 -18,-8 z"
         id="path3822"
         inkscape:connector-curvature="0" />
      <path
         style="fill:#333333;stroke:none"
         d="m 178,83.5 30,7.5 12.5,29 0,20 -16.5,26.5 -24,21 -22,12 -7.5,12 7,-15 20.5,-14.5 19.5,-17.5 7.5,-23 -3,-25.5 -24,-18 -24,-20 -8,-4.5 18,5.5 z"
         id="path3824"
         inkscape:connector-curvature="0" />
      <path
         style="fill:#333333;stroke:none"
         d="M 109,77.5 90.5,101 82,135.5 l 13.5,37 22,26 7.5,23 -5.5,-24.5 -18,-27.5 -4,-31 13.5,-32 5,-23.5 z"
         id="path3826"
         inkscape:connector-curvature="0" />
      <path
         style="fill:#333333;stroke:none"
         d="m 134.5,81.5 6.5,20.5 7.5,17 1,22 0.5,27 -6.5,34.5 -1,6 8.5,-19.5 7,-24.5 5.5,-37 -1.5,-16 -8,-11 -16,-17 z"
         id="path3828"
         inkscape:connector-curvature="0" />
    </g>
    <g
       inkscape:label="#g3870"
       id="eyes">
      <g
         id="g3850">
        <path
           inkscape:connector-curvature="0"
           id="path3830"
           d="m 36,95 -12.5,16 -2.5,17.5 8,27 25.5,27 -23,-28.5 -3.5,-25.5 1.5,-13 z"
           style="fill:#4e9a06;stroke:none" />
        <path
           inkscape:connector-curvature="0"
           id="path3840"
           d="m 25,114 -21,15.5 24.5,19 -2.5,-20 z"
           style="fill:#e5ff8b;fill-opacity:1;stroke:none" />
      </g>
      <g
         id="g3854">
        <path
           inkscape:connector-curvature="0"
           id="path3832"
           d="m 76.5,103 -14.5,20.5 -3,13 13.5,22 19,21.5 -13,-22 -5.5,-23 2,-14 z"
           style="fill:#4e9a06;stroke:none" />
        <path
           inkscape:connector-curvature="0"
           id="path3842"
           d="m 73,117 -3.5,13 4.5,27 -19,-17.5 9,-18 z"
           style="fill:#e5ff8b;fill-opacity:1;stroke:none" />
      </g>
      <g
         id="g3858">
        <path
           inkscape:connector-curvature="0"
           id="path3834"
           d="m 124.5,107.5 -10,21 0,21.5 2.5,18.5 16,19 7,-21 1.5,-34 L 139,116 z"
           style="fill:#4e9a06;stroke:none" />
        <path
           inkscape:connector-curvature="0"
           id="path3844"
           d="m 128,116.5 -7.5,21 7.5,34.5 12.5,-30.5 -5,-16.5 z"
           style="fill:#e5ff8b;fill-opacity:1;stroke:none" />
      </g>
      <g
         id="g3862">
        <path
           inkscape:connector-curvature="0"
           id="path3836"
           d="m 168.5,103 4,20 0,17 -12,41 L 182,167.5 196.5,136 182,111 z"
           style="fill:#4e9a06;stroke:none" />
        <path
           inkscape:connector-curvature="0"
           id="path3846"
           d="m 177,120 3,18 -2.5,28 21.5,-21.5 5.5,-13.5 z"
           style="fill:#e5ff8b;fill-opacity:1;stroke:none" />
      </g>
      <g
         id="g3866">
        <path
           inkscape:connector-curvature="0"
           id="path3838"
           d="m 220.5,105.5 6,22 -8,27 -11.5,19 26.5,-23.5 7,-30 -16.5,-18.5 z"
           style="fill:#4e9a06;stroke:none" />
        <path
           inkscape:connector-curvature="0"
           id="path3848"
           d="m 230,114 4,14.5 -3,19 18.5,-21.5 z"
           style="fill:#e5ff8b;fill-opacity:1;stroke:none" />
      </g>
    </g>
  </g>
</svg>
