<?xml version="1.0" encoding="UTF-8" standalone="no"?>
<!-- Generator: Adobe Illustrator 15.1.0, SVG Export Plug-In . SVG Version: 6.00 Build 0)  -->

<svg
   xmlns:dc="http://purl.org/dc/elements/1.1/"
   xmlns:cc="http://creativecommons.org/ns#"
   xmlns:rdf="http://www.w3.org/1999/02/22-rdf-syntax-ns#"
   xmlns:svg="http://www.w3.org/2000/svg"
   xmlns="http://www.w3.org/2000/svg"
   xmlns:sodipodi="http://sodipodi.sourceforge.net/DTD/sodipodi-0.dtd"
   xmlns:inkscape="http://www.inkscape.org/namespaces/inkscape"
   version="1.1"
   id="Layer_1"
   sodipodi:docname="Medikit.svg"
   inkscape:version="0.48.2 r9819"
   x="0px"
   y="0px"
   width="200px"
   height="200px"
   viewBox="0 0 200 200"
   enable-background="new 0 0 200 200"
   xml:space="preserve"><metadata
   id="metadata19"><rdf:RDF><cc:Work
       rdf:about=""><dc:format>image/svg+xml</dc:format><dc:type
         rdf:resource="http://purl.org/dc/dcmitype/StillImage" /></cc:Work></rdf:RDF></metadata><defs
   id="defs17">
	
	
		
</defs>
<sodipodi:namedview
   pagecolor="#ffffff"
   borderopacity="1"
   id="namedview11"
   inkscape:window-height="852"
   objecttolerance="10"
   bordercolor="#666666"
   gridtolerance="10"
   guidetolerance="10"
   inkscape:pageopacity="0"
   inkscape:pageshadow="2"
   inkscape:window-width="1440"
   showgrid="false"
   inkscape:cy="88.840309"
   inkscape:zoom="1.18"
   inkscape:cx="278.35079"
   inkscape:window-x="0"
   inkscape:window-y="0"
   inkscape:window-maximized="1"
   inkscape:current-layer="Glow"
   showguides="true"
   inkscape:guide-bbox="true">
	<sodipodi:guide
   id="guide3768"
   orientation="1,0"
   position="100,350.84746" />
	<sodipodi:guide
   id="guide3774"
   orientation="0,1"
   position="374.57627,98.305085" />
</sodipodi:namedview>


<g
   id="Glow"
   inkscape:label="#g3003"
   transform="matrix(1.6277831,0,0,1.6277831,237.22169,-63.842354)"><path
     d="m 253.38983,101.69492 a 153.38983,153.38983 0 1 1 -306.779662,0 153.38983,153.38983 0 1 1 306.779662,0 z"
     sodipodi:ry="153.38983"
     sodipodi:rx="153.38983"
     sodipodi:cy="101.69492"
     sodipodi:cx="100"
     id="path2996"
     style="opacity:0.45000005999999998;fill:#ff4545;fill-opacity:1;fill-rule:evenodd;stroke:none"
     sodipodi:type="arc"
     transform="matrix(0.72294373,0,0,0.72294373,-156.59411,28.175217)" /><path
     d="m 183.05085,101.69492 a 83.05085,83.05085 0 1 1 -166.1017,0 83.05085,83.05085 0 1 1 166.1017,0 z"
     sodipodi:ry="83.05085"
     sodipodi:rx="83.05085"
     sodipodi:cy="101.69492"
     sodipodi:cx="100"
     id="path2992"
     style="opacity:0.45000005999999998;fill:#ff4545;fill-opacity:1;fill-rule:evenodd;stroke:none"
     sodipodi:type="arc"
     transform="translate(-184.29974,0)" /><path
     d="m 165.25423,101.69492 a 65.254234,65.254234 0 1 1 -130.508464,0 65.254234,65.254234 0 1 1 130.508464,0 z"
     sodipodi:ry="65.254234"
     sodipodi:rx="65.254234"
     sodipodi:cy="101.69492"
     sodipodi:cx="100"
     id="path2994"
     style="opacity:0.45000005999999998;fill:#ff4545;fill-opacity:1;fill-rule:evenodd;stroke:none"
     sodipodi:type="arc"
     transform="translate(-184.29974,0)" /></g><g
   id="PowerUp"
   inkscape:label="#g3008"
   transform="translate(340,0)"><ellipse
     id="circle7"
     sodipodi:cx="99.789001"
     sodipodi:cy="99.482002"
     sodipodi:rx="69.222"
     sodipodi:ry="68.633003"
     cx="99.789001"
     cy="99.482002"
     rx="69.222"
     ry="68.633003"
     style="fill:#c83737;fill-opacity:1"
     transform="matrix(1.4348453,0,0,-1.4269247,-383.18178,241.95333)"
     d="m 169.011,99.482002 c 0,37.904958 -30.99174,68.633008 -69.221999,68.633008 -38.230255,0 -69.222,-30.72805 -69.222,-68.633008 0,-37.904961 30.991745,-68.633003 69.222,-68.633003 38.230259,0 69.221999,30.728042 69.221999,68.633003 z">
	</ellipse><path
     sodipodi:type="arc"
     style="fill:#dd8383;fill-opacity:1;fill-rule:evenodd;stroke:none"
     id="path3758"
     sodipodi:cx="100"
     sodipodi:cy="101.69492"
     sodipodi:rx="74.576271"
     sodipodi:ry="74.576271"
     d="m 174.57627,101.69492 c 0,41.18734 -33.38893,74.57627 -74.57627,74.57627 -41.187337,0 -74.576271,-33.38893 -74.576271,-74.57627 0,-41.187334 33.388934,-74.576268 74.576271,-74.576268 41.18734,0 74.57627,33.388934 74.57627,74.576268 z"
     transform="matrix(1.1818182,0,0,1.1818182,-358.18182,-18.489986)" /><path
     sodipodi:type="arc"
     style="fill:#ebb6b6;fill-opacity:1;fill-rule:evenodd;stroke:none"
     id="path3760"
     sodipodi:cx="100"
     sodipodi:cy="101.69492"
     sodipodi:rx="47.457626"
     sodipodi:ry="47.457626"
     d="m 147.45763,101.69492 c 0,26.21013 -21.24751,47.45763 -47.45763,47.45763 -26.210123,0 -47.457626,-21.2475 -47.457626,-47.45763 0,-26.21012 21.247503,-47.457623 47.457626,-47.457623 26.21012,0 47.45763,21.247503 47.45763,47.457623 z"
     transform="matrix(1.5802721,0,0,1.5802721,-398.02721,-59.010729)" /><path
     sodipodi:type="arc"
     style="fill:#ffffff;fill-opacity:1;fill-rule:evenodd;stroke:none"
     id="path3762"
     sodipodi:cx="100"
     sodipodi:cy="101.69492"
     sodipodi:rx="44.915253"
     sodipodi:ry="44.915253"
     d="m 144.91525,101.69492 c 0,24.80601 -20.10924,44.91526 -44.91525,44.91526 -24.806009,0 -44.915253,-20.10925 -44.915253,-44.91526 0,-24.806006 20.109244,-44.915249 44.915253,-44.915249 24.80601,0 44.91525,20.109243 44.91525,44.915249 z"
     transform="matrix(1.3175202,0,0,1.3175202,-371.75202,-32.290195)" /><path
     style="fill:#1a1a1a"
     inkscape:connector-curvature="0"
     id="path11"
     d="m -240.00001,66.935261 c -21.37862,-32.744012 -63.24502,-11.28296 -63.24502,18.914358 0,23.287551 36.40425,43.345821 63.24502,80.042211 26.84223,-36.69639 63.24504,-56.75466 63.24504,-80.042211 0,-30.197318 -40.53595,-51.65837 -63.24504,-18.914358 z" /></g>
</svg>