<?xml version="1.0" encoding="UTF-8" standalone="no"?>
<!-- Generator: Adobe Illustrator 15.1.0, SVG Export Plug-In . SVG Version: 6.00 Build 0)  -->

<svg
   xmlns:dc="http://purl.org/dc/elements/1.1/"
   xmlns:cc="http://creativecommons.org/ns#"
   xmlns:rdf="http://www.w3.org/1999/02/22-rdf-syntax-ns#"
   xmlns:svg="http://www.w3.org/2000/svg"
   xmlns="http://www.w3.org/2000/svg"
   xmlns:sodipodi="http://sodipodi.sourceforge.net/DTD/sodipodi-0.dtd"
   xmlns:inkscape="http://www.inkscape.org/namespaces/inkscape"
   version="1.0"
   id="Layer_1"
   x="0px"
   y="0px"
   width="200px"
   height="200px"
   viewBox="0 0 200 200"
   enable-background="new 0 0 200 200"
   xml:space="preserve"
   inkscape:version="0.48.2 r9819"
   sodipodi:docname="Mirror.svg"><metadata
   id="metadata19"><rdf:RDF><cc:Work
       rdf:about=""><dc:format>image/svg+xml</dc:format><dc:type
         rdf:resource="http://purl.org/dc/dcmitype/StillImage" /></cc:Work></rdf:RDF></metadata><defs
   id="defs17" /><sodipodi:namedview
   pagecolor="#ffffff"
   bordercolor="#666666"
   borderopacity="1"
   objecttolerance="10"
   gridtolerance="10"
   guidetolerance="10"
   inkscape:pageopacity="0"
   inkscape:pageshadow="2"
   inkscape:window-width="1440"
   inkscape:window-height="852"
   id="namedview15"
   showgrid="false"
   inkscape:zoom="1.18"
   inkscape:cx="2.9046054"
   inkscape:cy="117.87286"
   inkscape:window-x="0"
   inkscape:window-y="0"
   inkscape:window-maximized="1"
   inkscape:current-layer="Layer_1" />


<path
   sodipodi:type="arc"
   style="fill:#2f2f2f;fill-opacity:0.58937198;fill-rule:evenodd;stroke:none;opacity:1"
   id="path3009"
   sodipodi:cx="-168.98654"
   sodipodi:cy="24.421791"
   sodipodi:rx="98.875099"
   sodipodi:ry="103.66904"
   d="m -70.111443,24.421791 a 98.875099,103.66904 0 1 1 -197.750197,0 98.875099,103.66904 0 1 1 197.750197,0 z"
   transform="matrix(0.91023929,0,0,0.86814735,251.81819,80.99298)" /><circle
   fill="#5C5D60"
   cx="100.5"
   cy="100"
   r="46.333"
   id="circle7"
   style="fill:#1a1a1a" />
<rect
   x="74.666"
   y="12.588"
   fill="#B6B8BA"
   width="51.668"
   height="174.824"
   id="rect9"
   style="fill:#1a1a1a" />


<path
   style="fill:#1a1a1a;fill-opacity:1;fill-rule:evenodd;stroke:none"
   d="M 100,0 C 44.77153,0 0,44.771526 0,100 0,155.22847 44.77153,200 100,200 155.22847,200 200,155.22847 200,100 200,44.771526 155.22847,0 100,0 z m 0,30.5 c 38.37911,0 69.5,31.120891 69.5,69.5 0,38.37911 -31.12089,69.5 -69.5,69.5 -38.37911,0 -69.5,-31.12089 -69.5,-69.5 0,-38.379109 31.12089,-69.5 69.5,-69.5 z"
   id="path2996"
   inkscape:connector-curvature="0" /><g
   id="halo"
   inkscape:label="#g3759"><rect
     ry="75"
     rx="75"
     y="-29.084747"
     x="25.423737"
     height="260"
     width="150"
     id="rect3757"
     style="fill:#6bb0ff;fill-opacity:0.11111109;fill-rule:evenodd;stroke:none" /><rect
     inkscape:label="#rect2987"
     transform="scale(1,-1)"
     ry="50"
     rx="50"
     y="-205.91525"
     x="50.423737"
     height="210"
     width="100"
     id="rect2987"
     style="fill:#6bb0ff;fill-opacity:0.19806764;fill-rule:evenodd;stroke:none" /></g><rect
   style="fill:#6bb0ff;fill-opacity:1;fill-rule:evenodd;stroke:none"
   id="rect3007"
   width="24"
   height="180"
   x="87.288132"
   y="-190.46741"
   rx="12"
   ry="12"
   transform="scale(1,-1)" /><rect
   style="fill:#ffffff;fill-opacity:1;fill-rule:evenodd;stroke:none"
   id="rect3011"
   width="7.7901592"
   height="164.1926"
   x="95.393051"
   y="16.378281"
   rx="4"
   ry="4" /></svg>