<?xml version="1.0" encoding="UTF-8" standalone="no"?>
<!-- Created with Inkscape (http://www.inkscape.org/) -->

<svg
   xmlns:dc="http://purl.org/dc/elements/1.1/"
   xmlns:cc="http://creativecommons.org/ns#"
   xmlns:rdf="http://www.w3.org/1999/02/22-rdf-syntax-ns#"
   xmlns:svg="http://www.w3.org/2000/svg"
   xmlns="http://www.w3.org/2000/svg"
   xmlns:sodipodi="http://sodipodi.sourceforge.net/DTD/sodipodi-0.dtd"
   xmlns:inkscape="http://www.inkscape.org/namespaces/inkscape"
   width="256"
   height="256"
   id="svg2"
   version="1.1"
   inkscape:version="0.48.2 r9819"
   sodipodi:docname="Tribble.svg">
  <defs
     id="defs4" />
  <sodipodi:namedview
     id="base"
     pagecolor="#ffffff"
     bordercolor="#666666"
     borderopacity="1.0"
     inkscape:pageopacity="0.0"
     inkscape:pageshadow="2"
     inkscape:zoom="2.8"
     inkscape:cx="136.28492"
     inkscape:cy="142.63502"
     inkscape:document-units="px"
     inkscape:current-layer="layer1"
     showgrid="false"
     inkscape:window-width="1440"
     inkscape:window-height="852"
     inkscape:window-x="0"
     inkscape:window-y="0"
     inkscape:window-maximized="1"
     showguides="true"
     inkscape:guide-bbox="true">
    <sodipodi:guide
       orientation="1,0"
       position="128.57143,182.85714"
       id="guide3004" />
    <sodipodi:guide
       orientation="0,1"
       position="25,127.85714"
       id="guide3006" />
  </sodipodi:namedview>
  <metadata
     id="metadata7">
    <rdf:RDF>
      <cc:Work
         rdf:about="">
        <dc:format>image/svg+xml</dc:format>
        <dc:type
           rdf:resource="http://purl.org/dc/dcmitype/StillImage" />
        <dc:title></dc:title>
      </cc:Work>
    </rdf:RDF>
  </metadata>
  <g
     inkscape:label="Layer 1"
     inkscape:groupmode="layer"
     id="urchin"
     transform="translate(0,-796.36218)">
    <g
       id="body"
       inkscape:label="#g3806">
      <path
         sodipodi:nodetypes="cccccccccccccccccccccccc"
         inkscape:connector-curvature="0"
         id="path3008"
         d="m 132.57144,976.64791 67.85716,-4.28571 24.28573,-25.00001 14.64286,-22.85715 -8.57143,-32.50001 -6.42858,5.71429 -18.57144,-16.78573 -6.42858,4.64286 -21.78571,-22.5 -6.42858,5.71428 -22.85715,0.71429 -15.71428,-14.64286 -30.71431,4.64285 -26.071437,17.85715 -6.428574,-5.35714 -10.000003,18.57143 -4.64286,-9.64285 -14.285721,20.71429 -6.428574,-11.42858 -15.357149,34.28573 21.071438,35.35716 27.857154,10.35715 33.214296,4.28571 z"
         style="fill:#1a1a1a;fill-opacity:1;stroke:none" />
      <path
         transform="translate(0,796.36218)"
         inkscape:connector-curvature="0"
         id="path3790"
         d="M 40.357143,104.92857 35,128.14286 54.285714,164.92857 46.428572,128.14286 55,84.571428 z"
         style="fill:#333333;stroke:none;stroke-width:1px;stroke-linecap:butt;stroke-linejoin:miter;stroke-opacity:1" />
      <path
         sodipodi:nodetypes="ccccccccc"
         transform="translate(0,796.36218)"
         inkscape:connector-curvature="0"
         id="path3794"
         d="m 69.642857,76 -8.571428,41.78571 3.214285,41.78572 1.785715,7.14286 1.071428,-30.35715 11.341914,-30.75326 23.196339,-42.691897 -25.252538,17.456672 z"
         style="fill:#333333;stroke:none" />
      <path
         transform="translate(0,796.36218)"
         inkscape:connector-curvature="0"
         id="path3796"
         d="M 109.64286,62.071428 98.571429,111 l -2.5,42.85714 1.785714,17.85715 3.214287,-21.42858 9.64286,-39.64285 L 139.64286,64.928571 132.5,58.410714 z"
         style="fill:#333333;stroke:none;stroke-width:1px;stroke-linecap:butt;stroke-linejoin:miter;stroke-opacity:1" />
      <path
         transform="translate(0,796.36218)"
         inkscape:connector-curvature="0"
         id="path3798"
         d="m 147.98735,72.657313 14.39467,33.335037 11.86929,43.94163 1.51523,7.82868 -1.76776,-46.97209 -2.77792,-38.385795 z"
         style="fill:#333333;stroke:none;stroke-width:1px;stroke-linecap:butt;stroke-linejoin:miter;stroke-opacity:1" />
      <path
         transform="translate(0,796.36218)"
         inkscape:connector-curvature="0"
         id="path3800"
         d="m 198.74751,88.819754 17.1726,27.526656 5.3033,24.24366 -0.75762,-22.22335 -14.64721,-33.840115 z"
         style="fill:#333333;stroke:none;stroke-width:1px;stroke-linecap:butt;stroke-linejoin:miter;stroke-opacity:1" />
      <path
         sodipodi:nodetypes="ccccccc"
         transform="translate(0,796.36218)"
         inkscape:connector-curvature="0"
         id="path3802"
         d="m 184.35284,176.97587 3.78807,-24.26397 0,-53.285545 14.89975,36.870565 9.34391,27.27413 -11.23794,13.38451 z"
         style="fill:#333333;stroke:none" />
      <path
         sodipodi:nodetypes="cccccccc"
         transform="translate(0,796.36218)"
         inkscape:connector-curvature="0"
         id="path3804"
         d="m 114.65231,178.97587 7.07107,-50.83301 17.1726,-39.828183 -3.75856,45.828183 -0.28206,34.98402 7.07107,10.35406 -13.355,2.52539 z"
         style="fill:#333333;stroke:none" />
    </g>
    <g
       id="eyes"
       inkscape:label="#g3880">
      <g
         id="g3848">
        <path
           style="fill:#00ffff;stroke:none;stroke-width:1px;stroke-linecap:butt;stroke-linejoin:miter;stroke-opacity:1;opacity:0.2"
           d="M 32.324881,138.56977 25,128.14286 l 5.304576,-17.09975 1.010153,17.09975 z"
           id="path3828"
           inkscape:connector-curvature="0"
           transform="translate(0,796.36218)" />
        <path
           style="fill:#00ffff;stroke:none;stroke-width:1px;stroke-linecap:butt;stroke-linejoin:miter;stroke-opacity:1"
           d="M 28.663079,122.28106 23,128.14286 l 8.314729,6.3863 -1.641498,-6.3863 z"
           id="path3832"
           inkscape:connector-curvature="0"
           transform="translate(0,796.36218)"
           sodipodi:nodetypes="ccccc" />
      </g>
      <g
         id="g3852">
        <path
           style="fill:#00ffff;stroke:none;stroke-width:1px;stroke-linecap:butt;stroke-linejoin:miter;stroke-opacity:1;opacity:0.2"
           d="m 55.55839,110.53803 -5.303301,17.60483 3.030458,10.42691 5.555839,10.35406 -2.77792,-13.13198 0.505077,-7.64899 z"
           id="path3826"
           inkscape:connector-curvature="0"
           transform="translate(0,796.36218)" />
        <path
           style="fill:#00ffff;stroke:none;stroke-width:1px;stroke-linecap:butt;stroke-linejoin:miter;stroke-opacity:1"
           d="m 53.916892,119.2506 -7.661803,8.89226 7.535534,8.91168 2.020305,-8.91168 z"
           id="path3834"
           inkscape:connector-curvature="0"
           transform="translate(0,796.36218)"
           sodipodi:nodetypes="ccccc" />
      </g>
      <g
         id="g3856">
        <path
           style="fill:#00ffff;stroke:none;stroke-width:1px;stroke-linecap:butt;stroke-linejoin:miter;stroke-opacity:1;opacity:0.2"
           d="m 92.681496,97.911126 -10.606602,16.920054 -5.3033,27.27412 0,7.82868 7.576144,-15.65736 7.323606,-16.41498 0.252538,-12.62691 z"
           id="path3824"
           inkscape:connector-curvature="0"
           transform="translate(0,796.36218)" />
        <path
           style="fill:#00ffff;stroke:none;stroke-width:1px;stroke-linecap:butt;stroke-linejoin:miter;stroke-opacity:1"
           d="m 85.35789,114.95745 -11.050763,13.18541 4.989848,9.66929 6.187184,-9.66929 z"
           id="path3836"
           inkscape:connector-curvature="0"
           transform="translate(0,796.36218)"
           sodipodi:nodetypes="ccccc" />
      </g>
      <g
         id="g3860">
        <path
           style="fill:#00ffff;stroke:none;stroke-width:1px;stroke-linecap:butt;stroke-linejoin:miter;stroke-opacity:1;opacity:0.2"
           d="m 115.915,109.27534 -4.04061,18.86752 -0.50507,12.95229 6.81853,-12.95229 z"
           id="path3822"
           inkscape:connector-curvature="0"
           transform="translate(0,796.36218)" />
        <path
           style="fill:#00ffff;stroke:none;stroke-width:1px;stroke-linecap:butt;stroke-linejoin:miter;stroke-opacity:1"
           d="m 114.90485,120.00821 -1.6415,8.13465 0,7.01764 5.93465,-7.01764 z"
           id="path3838"
           inkscape:connector-curvature="0"
           transform="translate(0,796.36218)" />
      </g>
      <g
         id="g3864">
        <path
           style="fill:#00ffff;stroke:none;stroke-width:1px;stroke-linecap:butt;stroke-linejoin:miter;stroke-opacity:1;opacity:0.2"
           d="m 148.74496,98.668741 -4.29315,23.738589 7.07107,20.70812 6.06092,-21.2132 z"
           id="path3820"
           inkscape:connector-curvature="0"
           transform="translate(0,796.36218)" />
        <path
           style="fill:#00ffff;stroke:none;stroke-width:1px;stroke-linecap:butt;stroke-linejoin:miter;stroke-opacity:1"
           d="m 149.25004,109.90669 -2.02031,11.74302 3.78808,12.50064 3.78806,-13.13198 z"
           id="path3840"
           inkscape:connector-curvature="0"
           transform="translate(0,796.36218)"
           sodipodi:nodetypes="ccccc" />
      </g>
      <g
         id="g3868">
        <path
           style="fill:#00ffff;stroke:none;stroke-width:1px;stroke-linecap:butt;stroke-linejoin:miter;stroke-opacity:1;opacity:0.2"
           d="m 180.31223,113.56849 -1.26269,14.57437 4.04061,17.24544 1.01015,-17.24544 z"
           id="path3830"
           inkscape:connector-curvature="0"
           transform="translate(0,796.36218)" />
        <path
           style="fill:#00ffff;stroke:none;stroke-width:1px;stroke-linecap:butt;stroke-linejoin:miter;stroke-opacity:1"
           d="m 180.94357,123.92255 -0.3788,4.22031 2.0203,5.62868 2.39912,-5.62868 z"
           id="path3842"
           inkscape:connector-curvature="0"
           transform="translate(0,796.36218)"
           sodipodi:nodetypes="ccccc" />
      </g>
      <g
         id="g3872">
        <path
           style="fill:#00ffff;stroke:none;stroke-width:1px;stroke-linecap:butt;stroke-linejoin:miter;stroke-opacity:1;opacity:0.2"
           d="m 194.95944,97.153512 7.07107,20.960668 9.09137,10.02868 -1.76776,-14.57437 z"
           id="path3818"
           inkscape:connector-curvature="0"
           transform="translate(0,796.36218)" />
        <path
           style="fill:#00ffff;stroke:none;stroke-width:1px;stroke-linecap:butt;stroke-linejoin:miter;stroke-opacity:1"
           d="m 201.39916,109.65415 2.65165,7.07107 5.80838,7.3236 0.50508,-12.2481 z"
           id="path3844"
           inkscape:connector-curvature="0"
           transform="translate(0,796.36218)" />
      </g>
      <g
         id="g3876">
        <path
           style="fill:#00ffff;stroke:none;stroke-width:1px;stroke-linecap:butt;stroke-linejoin:miter;stroke-opacity:1;opacity:0.2"
           d="m 220.21326,106.24488 5.05076,10.35407 6.31345,11.54391 -0.75761,-14.32183 z"
           id="path3816"
           inkscape:connector-curvature="0"
           transform="translate(0,796.36218)" />
        <path
           style="fill:#00ffff;stroke:none;stroke-width:1px;stroke-linecap:butt;stroke-linejoin:miter;stroke-opacity:1"
           d="m 224.63267,111.04311 6.81853,11.99556 2.02031,-9.97526 z"
           id="path3846"
           inkscape:connector-curvature="0"
           transform="translate(0,796.36218)" />
      </g>
    </g>
  </g>
</svg>
